<svg xmlns="http://www.w3.org/2000/svg" width="1600" height="1000" viewBox="0 0 1600 1000">
  <rect width="1600" height="1000" fill="#f7f7f5"/>
  <rect x="146" y="92" width="1308" height="816" fill="#fff" stroke="#d8d8d4"/>
  <text x="206" y="166" fill="#777" font-family="ui-monospace, SFMono-Regular, Menlo, monospace" font-size="16" letter-spacing="5">SNAPLEDGER</text>
  <text x="206" y="226" fill="#111" font-family="Arial, Helvetica, sans-serif" font-size="48" font-weight="700">Offline-first receipt tracking</text>
  <text x="206" y="272" fill="#666" font-family="Arial, Helvetica, sans-serif" font-size="22">Android capture, local queueing, backend sync recovery, and Gemini validation.</text>
  <rect x="232" y="352" width="330" height="474" rx="28" fill="#111"/>
  <rect x="254" y="402" width="286" height="374" fill="#f9f9f7"/>
  <text x="286" y="454" fill="#111" font-family="Arial, Helvetica, sans-serif" font-size="26" font-weight="700">Receipts</text>
  <rect x="286" y="496" width="222" height="68" fill="#fff" stroke="#d8d8d4"/>
  <rect x="286" y="584" width="222" height="68" fill="#fff" stroke="#d8d8d4"/>
  <rect x="286" y="672" width="222" height="68" fill="#fff" stroke="#d8d8d4"/>
  <text x="310" y="536" fill="#111" font-family="Arial" font-size="18">Groceries</text>
  <text x="310" y="624" fill="#111" font-family="Arial" font-size="18">Transport</text>
  <text x="310" y="712" fill="#111" font-family="Arial" font-size="18">School supplies</text>
  <g font-family="Arial, Helvetica, sans-serif">
    <rect x="690" y="376" width="650" height="94" fill="#fbfbfa" stroke="#d8d8d4"/>
    <rect x="690" y="500" width="650" height="94" fill="#fbfbfa" stroke="#d8d8d4"/>
    <rect x="690" y="624" width="650" height="94" fill="#fbfbfa" stroke="#d8d8d4"/>
    <text x="732" y="430" fill="#111" font-size="24" font-weight="700">Local-first save</text>
    <text x="732" y="554" fill="#111" font-size="24" font-weight="700">WorkManager sync</text>
    <text x="732" y="678" fill="#111" font-size="24" font-weight="700">Gemini validation</text>
    <text x="1068" y="430" fill="#666" font-size="18">survives timeout</text>
    <text x="1068" y="554" fill="#666" font-size="18">reconciles safely</text>
    <text x="1068" y="678" fill="#666" font-size="18">schema guarded</text>
  </g>
</svg>
